<?xml version="1.0" encoding="UTF-8" standalone="no"?>
<!-- Generator: Adobe Illustrator 19.1.0, SVG Export Plug-In . SVG Version: 6.00 Build 0)  -->

<svg
   xmlns:dc="http://purl.org/dc/elements/1.1/"
   xmlns:cc="http://creativecommons.org/ns#"
   xmlns:rdf="http://www.w3.org/1999/02/22-rdf-syntax-ns#"
   xmlns:svg="http://www.w3.org/2000/svg"
   xmlns="http://www.w3.org/2000/svg"
   xmlns:sodipodi="http://sodipodi.sourceforge.net/DTD/sodipodi-0.dtd"
   xmlns:inkscape="http://www.inkscape.org/namespaces/inkscape"
   version="1.1"
   id="Layer_1"
   x="0px"
   y="0px"
   width="2000px"
   height="3000px"
   viewBox="0 0 2000 3000"
   enable-background="new 0 0 2000 3000"
   xml:space="preserve"
   sodipodi:docname="video-mask-small.svg"
   inkscape:version="0.92pre2 r"><metadata
     id="metadata13"><rdf:RDF><cc:Work
         rdf:about=""><dc:format>image/svg+xml</dc:format><dc:type
           rdf:resource="http://purl.org/dc/dcmitype/StillImage" /><dc:title /></cc:Work></rdf:RDF></metadata><defs
     id="defs11" /><sodipodi:namedview
     pagecolor="#ffffff"
     bordercolor="#666666"
     borderopacity="1"
     objecttolerance="10"
     gridtolerance="10"
     guidetolerance="10"
     inkscape:pageopacity="0"
     inkscape:pageshadow="2"
     inkscape:window-width="1920"
     inkscape:window-height="1016"
     id="namedview9"
     showgrid="false"
     inkscape:pagecheckerboard="true"
     inkscape:zoom="0.2"
     inkscape:cx="919.75861"
     inkscape:cy="1485.438"
     inkscape:window-x="0"
     inkscape:window-y="27"
     inkscape:window-maximized="1"
     inkscape:current-layer="Layer_1" /><path
     fill="#FFFFFF"
     d="M1082,1445c-5.8,0-8.7,4.2-8.7,12.5s2.9,12.4,8.6,12.4c2.9,0,5.1-1,6.5-3s2.1-5.1,2.1-9.4s-0.7-7.4-2.2-9.5  C1087,1446,1084.9,1445,1082,1445z"
     id="path2" /><path
     d="M 0,0 V 3000 H 2000 V 0 Z"
     id="path4"
     inkscape:connector-curvature="0"
     style="fill:#ffffff"
     sodipodi:nodetypes="ccccc" /><path
     fill="#FFFFFF"
     d="M993.2,1466.4c1.6-2,2.5-5.2,2.5-9.4c0-3.9-0.8-6.8-2.3-8.7c-1.6-1.9-3.9-2.8-7.1-2.8h-3.4v24h2.6  C989,1469.5,991.6,1468.5,993.2,1466.4z"
     id="path6" /><rect
     style="fill:#4d4d4d"
     id="rect9"
     width="2000"
     height="3000"
     x="0"
     y="0" /></svg>