<?xml version="1.0" encoding="UTF-8" standalone="no"?>
<!-- Generator: Adobe Illustrator 19.1.0, SVG Export Plug-In . SVG Version: 6.00 Build 0)  -->

<svg
   xmlns:dc="http://purl.org/dc/elements/1.1/"
   xmlns:cc="http://creativecommons.org/ns#"
   xmlns:rdf="http://www.w3.org/1999/02/22-rdf-syntax-ns#"
   xmlns:svg="http://www.w3.org/2000/svg"
   xmlns="http://www.w3.org/2000/svg"
   xmlns:sodipodi="http://sodipodi.sourceforge.net/DTD/sodipodi-0.dtd"
   xmlns:inkscape="http://www.inkscape.org/namespaces/inkscape"
   version="1.1"
   id="Layer_1"
   x="0px"
   y="0px"
   width="4000px"
   height="3000px"
   viewBox="0 0 4000 3000"
   enable-background="new 0 0 4000 3000"
   xml:space="preserve"
   sodipodi:docname="video-mask.svg"
   inkscape:version="0.92pre2 r"><metadata
     id="metadata15"><rdf:RDF><cc:Work
         rdf:about=""><dc:format>image/svg+xml</dc:format><dc:type
           rdf:resource="http://purl.org/dc/dcmitype/StillImage" /><dc:title></dc:title></cc:Work></rdf:RDF></metadata><defs
     id="defs13" /><sodipodi:namedview
     pagecolor="#ffffff"
     bordercolor="#666666"
     borderopacity="1"
     objecttolerance="10"
     gridtolerance="10"
     guidetolerance="10"
     inkscape:pageopacity="0"
     inkscape:pageshadow="2"
     inkscape:window-width="1920"
     inkscape:window-height="1016"
     id="namedview11"
     showgrid="false"
     inkscape:pagecheckerboard="true"
     inkscape:snap-global="false"
     inkscape:zoom="0.125"
     inkscape:cx="4398.9352"
     inkscape:cy="2198.7022"
     inkscape:window-x="0"
     inkscape:window-y="27"
     inkscape:window-maximized="1"
     inkscape:current-layer="Layer_1" /><g
     id="g8"><path
       d="M1836.9,1488h-2.9v24h2.1c3.5,0,6.1-1,7.7-3.1s2.5-5.2,2.5-9.4c0-3.9-0.8-6.8-2.3-8.7   C1842.5,1488.9,1840.1,1488,1836.9,1488z"
       id="path2"
       fill="#FFFFFF" /><path
       d="M 0,0 V 3000 H 4000 V 0 Z"
       id="path4"
       inkscape:connector-curvature="0"
       style="fill:#ffffff"
       sodipodi:nodetypes="ccccc" /><path
       d="M1942.3,1487.4c-5.8,0-8.7,4.2-8.7,12.5c0,8.3,2.9,12.4,8.6,12.4c2.9,0,5.1-1,6.5-3c1.4-2,2.1-5.1,2.1-9.4   c0-4.3-0.7-7.4-2.2-9.5C1947.3,1488.5,1945.1,1487.4,1942.3,1487.4z"
       id="path6"
       fill="#FFFFFF" /></g></svg>